<svg width="256" height="256" viewBox="0 0 256 256" fill="none" xmlns="http://www.w3.org/2000/svg">
  <defs>
    <linearGradient id="outerRing" x1="20" y1="20" x2="236" y2="236" gradientUnits="userSpaceOnUse">
      <stop offset="0" stop-color="#C7D2FE"/>
      <stop offset="1" stop-color="#A5B4FC"/>
    </linearGradient>
    <linearGradient id="innerRing" x1="32" y1="32" x2="224" y2="224" gradientUnits="userSpaceOnUse">
      <stop offset="0" stop-color="#4F67F5"/>
      <stop offset="1" stop-color="#2F56E6"/>
    </linearGradient>
    <linearGradient id="core" x1="48" y1="48" x2="208" y2="208" gradientUnits="userSpaceOnUse">
      <stop offset="0" stop-color="#3555E8"/>
      <stop offset="1" stop-color="#2048D9"/>
    </linearGradient>
  </defs>

  <rect x="20" y="20" width="216" height="216" rx="54" fill="url(#outerRing)"/>
  <rect x="28" y="28" width="200" height="200" rx="48" fill="url(#innerRing)"/>
  <rect x="40" y="40" width="176" height="176" rx="40" fill="url(#core)"/>

  <g transform="translate(128 122)">
    <path d="M-50 -6L0 -30L50 -6L0 18L-50 -6Z" fill="#FFFFFF"/>
    <path d="M-30 8V26C-30 32 -17 38 0 38C17 38 30 32 30 26V8L0 23L-30 8Z" fill="#FFFFFF"/>
    <path d="M52 -4V26" stroke="#FFFFFF" stroke-width="7" stroke-linecap="round"/>
    <circle cx="52" cy="31" r="6" fill="#FFFFFF"/>
  </g>
</svg>
